<svg xmlns="http://www.w3.org/2000/svg" height="800" width="1200" version="1.0" viewBox="-54 -11.25 468 67.5"><path d="M281.2188 11.625c-1.2699 0-2.3163.4281-3.1563 1.2813-.839.8542-1.25 1.8168-1.25 2.9062 0 1.3825.6144 2.9188 1.8438 4.625-2.041 1.3628-3.4344 2.5116-4.1563 3.4063-.7197.8968-1.0625 1.9934-1.0625 3.3124 0 1.154.2964 2.152.875 3.0313.5775.8805 1.2989 1.5758 2.2188 2.0625.9198.4867 1.8967.75 2.9062.75 2.0584 0 4.0255-1.0397 5.875-3.0938C286.8678 31.9603 288.6702 33 290.7188 33c.945 0 1.7803-.2831 2.5-.8125.7186-.5283 1.1842-1.234 1.4062-2.0938h-.75c-.5348.944-1.2947 1.4375-2.2813 1.4376-.7251 0-1.3903-.2243-2.0312-.6563-.6399-.431-1.533-1.4536-2.6563-3.0625.4714-.6267.9982-1.5998 1.5625-2.9375.6716-1.6198 1.3344-2.7273 1.9688-3.3125.6355-.5863 1.3678-.989 2.2188-1.2188v-.75h-6.75v.75c1.6526.1882 2.4687.8605 2.4687 2.0626 0 .5009-.1845 1.2012-.5313 2.0937-.3456.8936-.809 1.757-1.4062 2.5938a388.0789 388.0789 0 00-5.2813-7.3126c3.0155-1.517 4.5-3.0742 4.5-4.6874 0-1.037-.4315-1.8925-1.3437-2.5313-.9133-.6388-1.9606-.9375-3.0938-.9375zm28.6875.0938c-1.8365 0-3.5258.4193-5.0625 1.2812-1.5368.8619-2.7352 2.1892-3.5938 3.9688-.8575 1.7784-1.2813 3.6728-1.2813 5.6874 0 3.068.9197 5.5415 2.7813 7.4063 1.8605 1.8648 4.2853 2.7812 7.2188 2.7813 2.7759 0 5.0576-1.0155 6.8437-3.0313.4725.6223.786 1.3414.9688 2.1563h.6875v-7.1563h-.6875c-.1204 1.1823-.5236 2.421-1.1875 3.6875-.6629 1.2677-1.5511 2.157-2.6875 2.6875-1.1397.5305-2.2544.7813-3.3438.7813-2.0366 0-3.7556-.8068-5.125-2.4376-1.366-1.6318-2.0313-3.9709-2.0313-7.0312 0-3.232.6227-5.733 1.875-7.4688 1.2546-1.738 2.9341-2.5937 5.0625-2.5937 1.737 0 3.3029.5444 4.6875 1.625 1.3847 1.0806 2.3005 2.98 2.75 5.7188h.6875l-.1875-7.7188h-.6875c-.093.911-.3404 1.8064-.7812 2.6563-.6081-.758-1.5497-1.4391-2.7813-2.0625-1.2337-.6235-2.609-.9375-4.125-.9375zm-120 .0625c-1.8365 0-3.5258.4193-5.0625 1.2812-1.5379.8619-2.7352 2.1892-3.5938 3.9688-.8586 1.7784-1.2812 3.6717-1.2813 5.6874 0 3.067.9197 5.5404 2.7813 7.4063 1.8594 1.8648 4.2519 2.7812 7.1875 2.7813 2.7738 0 5.0588-.9832 6.8438-3 .4746.6245.8195 1.3403 1 2.1562h.6875V24.875h-.6875c-.1204 1.1834-.5225 2.421-1.1875 3.6875-.6629 1.2677-1.549 2.157-2.6875 2.6875-1.1397.5305-2.2555.8125-3.3438.8125-2.0366 0-3.7567-.839-5.125-2.4688-1.3683-1.6318-2.0312-3.9698-2.0313-7.0312 0-3.232.6216-5.7017 1.875-7.4375 1.2535-1.7369 2.9363-2.625 5.0625-2.625 1.7391 0 3.305.5444 4.6875 1.625 1.3836 1.0806 2.2994 2.98 2.75 5.7188h.6875l-.1875-7.6876h-.6875c-.0919.9111-.3717 1.7752-.8125 2.625-.608-.758-1.5162-1.4401-2.75-2.0625-1.2304-.6234-2.608-.9375-4.125-.9375zM41.25 11.8438c-1.1495 0-2.7584.0451-4.8125.125l-2.5625.0937v.6875h.375c1.0402 0 1.7184.1008 2.0313.2813.3139.1815.503.4962.5937.9687.0908.4725.1562 1.531.1563 3.1563v10c0 1.7073-.0655 2.8142-.1563 3.2812-.0908.467-.287.8103-.625 1.0313-.338.2209-.9655.3124-1.8438.3124h-.5312v.6876h9.4063v-.6876h-.6876c-.9187 0-1.5414-.1009-1.875-.3437-.3335-.2417-.5495-.6263-.625-1.125-.0765-.4988-.0937-1.544-.0937-3.1563v-4.3124h2.25c2.3428 0 3.9766-.2155 4.9063-.6563.9307-.4419 1.6262-1.0844 2.125-1.9375.4976-.8542.75-1.8542.75-2.9688 0-1.284-.3632-2.3442-1.0938-3.1874-.7306-.8433-1.6695-1.4186-2.8125-1.75-1.143-.3315-2.7608-.5-4.875-.5zm-19.3438.2187v.6875h.4688c1.0358 0 1.6938.1008 2 .2813.3073.1804.5298.4984.625.9687.0952.4714.125 1.5331.125 3.1563v6.9374c0 2.274-.058 3.9197-.2188 4.9063-.1585.9888-.6576 1.8362-1.4374 2.5625-.7799.7262-1.7354 1.0937-2.875 1.0938-.56 0-1.0257-.102-1.4063-.2813-.3784-.1794-.5625-.4306-.5625-.75 0-.1203.0458-.2917.1563-.5313.1214-.2701.1874-.5307.1874-.7812 0-.42-.1389-.7727-.4374-1.0625-.2976-.291-.681-.4375-1.125-.4375-.4343 0-.7952.1762-1.0938.5-.2975.3237-.4375.714-.4375 1.1875 0 .7853.4198 1.4614 1.25 2.0313.8323.5687 1.9902.8437 3.5313.8437 1.3715 0 2.5892-.226 3.625-.6875 1.0357-.4627 1.8798-1.1123 2.5-1.9688.6201-.8575.9882-1.7528 1.125-2.6562.1345-.9023.1874-2.2105.1874-3.9375v-6.9688c0-1.6953.0557-2.767.1563-3.2187.0995-.4517.3144-.7734.625-.9375.3095-.1673.9669-.25 1.9688-.25h.5v-.6875zm30.875 0v.6875h.5626c1.0401 0 1.6915.1008 2 .2813.3084.1815.5298.4962.625.9687.0962.4725.125 1.5298.125 3.1563v8.875c0 1.6865-.0349 2.8453-.1563 3.4687-.1203.6223-.48 1.1694-1.0313 1.5938-.5501.4265-1.2456.6382-2.125.6874v.6876h7.3438v-.6876c-.944-.0601-1.6658-.3037-2.1875-.75-.524-.4462-.838-.9696-.9375-1.5624-.1006-.5929-.1563-1.7076-.1563-3.3438V14.1875l8.125 18.2813h.7188l8.0313-18.2813v13c0 1.7073-.0299 2.783-.125 3.25-.0952.467-.3183.8092-.6563 1.0313-.339.2209-.943.3124-1.8125.3124h-.7188v.6876h9.8126v-.6876h-.9063c-.9253 0-1.549-.102-1.875-.3437-.3281-.2406-.5452-.5972-.625-1.0938-.081-.4965-.125-1.5807-.125-3.1874v-10c0-1.6965.049-2.766.1563-3.2188.1039-.4517.3132-.7723.625-.9375.3117-.1652.9948-.25 2-.25h.75v-.6875h-6.3126L66.5 28.9688 59 12.0624zm228.5.3438c.7668 0 1.3735.2595 1.8438.7812.467.5228.7187 1.1847.7188 2.0313 0 1.4196-1.064 2.747-3.1563 3.9687-1.2852-1.7642-1.9063-3.1637-1.9063-4.1875 0-.7416.2282-1.3428.6875-1.8438.4583-.4998 1.0524-.75 1.8125-.75zm-239.7187.1562c1.8616 0 3.2022.3967 4.0313 1.1875.829.7897 1.25 2.0278 1.25 3.7188 0 1.108-.2365 2.0578-.7188 2.8124-.4834.7547-1.0895 1.2304-1.8125 1.4688-.724.2362-1.668.375-2.8438.375H40v-9.5c.362-.0405.88-.0625 1.5625-.0625zm202.0625 3.875c-1.1944 0-2.1576.349-2.9375 1.0938-.7788.7448-1.1875 1.6935-1.1875 2.8124 0 .734.2037 1.415.5625 2.0626.3588.6485.83 1.1901 1.4688 1.5937.6387.4058 1.6171.867 2.875 1.4063 1.4109.6026 2.3757 1.1635 2.9062 1.6874.5316.5316.7813 1.1824.7813 1.9688 0 .7788-.3015 1.496-.9063 2.125-.606.629-1.4589.9375-2.5625.9375-2.4533 0-4-1.6497-4.6563-4.9375h-.5937V32.25h.5938c.1235-.6573.3054-1.1692.5625-1.5313 1.1528 1.3191 2.5887 1.9688 4.3125 1.9688 1.4995 0 2.6968-.41 3.5937-1.25.8969-.8422 1.3438-1.9381 1.3438-3.2813 0-.8487-.1929-1.6014-.5625-2.25-.373-.6474-.853-1.1335-1.4688-1.5-.6147-.3664-1.6158-.8639-2.9688-1.4687-1.4142-.6377-2.3637-1.2134-2.9062-1.7188-.5524-.4965-.8437-1.0939-.8438-1.8124 0-.595.2177-1.1543.6563-1.6563.4397-.4998 1.1219-.75 2.0625-.75.9877 0 1.8769.352 2.625 1.0313.7514.6814 1.2672 1.5956 1.5625 2.7812h.5v-4.0938h-.5c-.0448.4933-.2383.9518-.5938 1.375-.619-.678-1.2251-1.1282-1.8125-1.3437-.5895-.2166-1.238-.3125-1.9062-.3125zm-153.7813.0313c-2.4193 0-4.4135.7207-6.0312 2.1874-1.6177 1.4657-2.4375 3.4211-2.4375 5.8438 0 2.485.8116 4.4648 2.4063 5.9688 1.5946 1.506 3.6356 2.2812 6.125 2.2812 2.556 0 4.619-.7752 6.1874-2.2813 1.5674-1.5039 2.3438-3.4446 2.3438-5.875 0-2.508-.8325-4.486-2.4688-5.9374-1.6373-1.4504-3.6837-2.1876-6.125-2.1876zm36.2813 0c-2.4434 0-4.3583.8414-5.7813 2.5312-1.423 1.6887-2.1562 3.6619-2.1562 5.9063 0 2.2684.7625 4.1473 2.25 5.625 1.4864 1.4776 3.3505 2.2187 5.5938 2.2187 1.1167 0 2.3136-.2589 3.625-.75.9625-.361 1.7509-.5313 2.3437-.5313.1466 0 .3173-.0004.5.0313v-1.6563c0-1.3562.0397-2.2103.125-2.5624.0842-.3511.2644-.6304.5313-.7813.2657-.151.783-.2188 1.5312-.2188V25.75h-6.7813v.5313h.375c.6224 0 1.0483.0589 1.2813.1562.233.0952.3873.2814.5.5625.1127.2822.1875.8442.1875 1.6875 0 .7186-.1355 1.311-.375 1.7813-.2373.4714-.6595.8593-1.3125 1.1874-.654.3304-1.389.5-2.1875.5-1.5597 0-2.8853-.5582-3.9375-1.7187-1.0533-1.1583-1.5625-3.155-1.5625-5.9375 0-2.7902.5614-4.7177 1.6563-5.8125 1.0948-1.0938 2.3693-1.6563 3.8437-1.6563 1.4263 0 2.6264.47 3.625 1.4063.9997.9373 1.6206 2.208 1.8438 3.8125h.5312V17h-.5313c-.07.6333-.2418 1.2333-.5 1.7813-1.378-1.539-3.1165-2.3126-5.2187-2.3126zm204.6563 0c-2.4194 0-4.4136.7207-6.0313 2.1874-1.6177 1.4657-2.4375 3.4211-2.4375 5.8438 0 2.485.7803 4.4648 2.375 5.9688 1.5947 1.506 3.6367 2.2812 6.125 2.2812 2.5583 0 4.619-.7752 6.1875-2.2813 1.5673-1.5039 2.375-3.4446 2.375-5.875 0-2.508-.8325-4.486-2.4688-5.9374-1.6373-1.4504-3.6848-2.1876-6.125-2.1876zM229.0938 16.5l-4.5625 10.875c-.3282.782-.5457 1.229-.5938 1.3438-.4845 1.2304-.8775 2.0245-1.2188 2.4062-.3412.3828-.8636.6417-1.5625.75v.5313h4.7188v-.5313c-.5086 0-.9284-.131-1.25-.375-.3183-.2428-.4688-.591-.4688-1.0625 0-.4408.3047-1.3677.9063-2.8125l.4063-1h5.9375l1.2187 2.9063c.3555.8421.5313 1.3304.5313 1.5 0 .3314-.1416.5759-.4063.6874-.2669.1116-.7776.1563-1.5313.1563v.5313h6.1563v-.5313c-.5502-.0536-.9453-.193-1.2188-.4063-.2745-.211-.4943-.5053-.6562-.875l-.7188-1.625L229.5625 16.5zm-122.75.0625c-.8783 0-2.0685.0281-3.5626.0938l-2.2187.0937v.5313h.25c.8083 0 1.3498.0798 1.5938.2187.2417.139.3987.388.4687.75.0711.362.0937 1.1572.0937 2.4063v7.7187c0 1.3114-.0238 2.1402-.0937 2.5-.0689.3588-.2408.6128-.5.7813-.2581.1695-.7336.25-1.4063.25h-.5v.5312H108v-.5313h-.75c-.712 0-1.2183-.0964-1.4688-.2812-.2526-.1837-.4118-.4631-.4687-.8438-.058-.3773-.0625-1.1801-.0625-2.4062v-3.4375h.625c.4211 0 .706.0777.9063.2188.198.1421.5643.5065 1.0937 1.1562.5283.6464 1.039 1.3258 1.5313 2.0313 1.5323 2.2071 2.6937 3.5676 3.4374 4.0937h4.1876v-.5313c-.9177-.0306-1.7013-.288-2.375-.7812-.6716-.4955-1.5979-1.5369-2.7813-3.125-1.4525-1.9622-2.5334-3.0923-3.1875-3.4063 1.4525-.1771 2.5644-.6174 3.3125-1.3437.7503-.7262 1.125-1.6281 1.125-2.6563 0-.8804-.2975-1.6167-.875-2.25-.5775-.6354-1.316-1.096-2.25-1.375-.9363-.2778-2.1633-.4062-3.6563-.4062zm37.4062 0l-4.5938 10.8438c-.3292.7809-.511 1.2289-.5625 1.3437-.4812 1.2305-.9076 2.0558-1.25 2.4375-.3423.3828-.8334.6105-1.5312.7188v.5312h4.7188v-.5313c-.5108 0-.9307-.0998-1.25-.3437-.3205-.244-.4688-.6223-.4688-1.0938 0-.4407.3036-1.3676.9063-2.8124l.4062-1h5.9375l1.1875 2.9062c.3544.8422.5625 1.3617.5625 1.5313 0 .3314-.1394.5446-.4063.6562-.2657.1116-.7765.1563-1.5312.1563v.5312h6.1563v-.5313c-.548-.0546-.9454-.1617-1.2188-.375-.2734-.211-.4955-.5053-.6563-.875L149.4375 29l-5.2188-12.4375zm58.375.1563v.5312h.3125c.8006 0 1.2939.081 1.5313.2188.2362.1389.3976.3868.4687.75.0744.362.125 1.1582.125 2.4062v7.6875c0 1.3125-.0506 2.1714-.125 2.5313-.0711.3587-.2408.6128-.5.7812-.2603.1695-.7303.25-1.4063.25h-.4062v.5313h7.125v-.5313h-.4063c-.7109 0-1.215-.0964-1.4687-.2813-.2537-.1859-.4075-.462-.4688-.8437-.0623-.3828-.0937-1.1994-.0937-2.4375v-3.7813H215v3.7813c0 1.3147-.0238 2.1402-.0937 2.5-.0689.3598-.2452.6419-.5.8125-.257.1695-.7166.25-1.375.25H212.5v.5313h7.0938v-.5313h-.3438c-.7 0-1.1826-.0964-1.4375-.2813-.2538-.1848-.4108-.462-.4688-.8437-.059-.3817-.0937-1.2027-.0937-2.4375V20.625c0-1.3016.0452-2.122.125-2.4688.082-.3467.2314-.593.4688-.7187.2395-.128.7612-.1875 1.5313-.1875h.2187v-.5313H212.5v.5313h.4063c.7885 0 1.2972.081 1.5312.2188.234.1389.3998.3868.4688.75.07.362.0937 1.1582.0937 2.4062v3.125h-8.1875v-3.125c0-1.3016.043-2.122.125-2.4688.082-.3467.2571-.593.5-.7187.2417-.128.7267-.1875 1.5-.1875h.3125v-.5313zm50.625 0v.5312c.7623 0 1.2616.0678 1.5.2188.2374.1487.4031.4039.4688.7812.0678.3773.0937 1.1806.0937 2.375v7.6875c0 1.3114-.0325 2.1483-.0937 2.4688-.0623.3193-.2111.5723-.4375.7812-.2264.2078-.6966.3125-1.4688.3125h-.3438v.5313h12.9375l.3438-4.875h-.5313c-.2778 1.1746-.676 2.0915-1.1562 2.75-.4802.6606-.9717 1.0898-1.5 1.2812-.5326.1914-1.2077.2813-2.0313.2813h-1.1562c-1.0478 0-1.698-.173-1.9375-.5-.2384-.327-.3438-1.4241-.3438-3.2813v-3.7188h1.6875c.6672 0 1.1564.0666 1.4375.1563.28.0886.4796.266.625.5625.1455.2986.2188.8794.2188 1.75h.5313v-5.3438h-.5313c0 .769-.06 1.2979-.1563 1.5626-.0962.2657-.293.4625-.5937.5937-.3019.1313-.8358.1875-1.5938.1875h-1.625V17.25h2.1563c1.0872 0 1.8527.0683 2.3438.1875.49.1203.9246.3866 1.2812.8438.3544.4582.6613 1.251.9063 2.3437h.5312l-.375-3.9063zm-98.6875.0312v.5313c.8466 0 1.38.0715 1.625.1874.245.116.4186.3733.5313.7813.1126.408.1875 1.202.1875 2.4063V29c0 .9483-.0528 1.5264-.125 1.7813-.0733.2537-.296.4978-.6875.7187-.3905.221-.9449.3516-1.6875.4063v.5312h5.8125v-.5313c-.8291 0-1.4293-.1042-1.8438-.3437-.4145-.2384-.6916-.4947-.7813-.7813-.0886-.2854-.125-.8789-.125-1.7812V18.0937l11.1563 14.7188h.4688v-13c0-.6716.0534-1.124.1562-1.4063.1028-.281.3425-.5498.7188-.75.3784-.2001.9062-.3203 1.5625-.375V16.75h-5.6563v.5313c.6169 0 1.124.088 1.5625.25.4397.1618.7328.3795.875.6562.1422.279.2188.7753.2188 1.4688v9.375L158.75 16.75zm-64.1875.2813c1.9108 0 3.3698.6682 4.375 1.9687 1.0052 1.3005 1.5 3.1536 1.5 5.5938 0 2.509-.5119 4.3896-1.5313 5.6562-1.0215 1.2666-2.3985 1.9063-4.1562 1.9063-2.0048 0-3.4981-.6397-4.5-1.9063s-1.5-3.1319-1.5-5.6563c0-2.486.4981-4.3864 1.5-5.6562s2.4302-1.9062 4.3125-1.9063zm240.9375 0c1.9108 0 3.3698.6682 4.375 1.9687 1.0073 1.3005 1.5 3.1536 1.5 5.5938 0 2.509-.5119 4.3896-1.5313 5.6562-1.0215 1.2666-2.3996 1.9063-4.1562 1.9063-2.0048 0-3.5294-.6397-4.5313-1.9063-1.0018-1.2666-1.5-3.1319-1.5-5.6563 0-2.486.4982-4.3864 1.5-5.6562 1.002-1.2698 2.4615-1.9062 4.3438-1.9063zm-224.5938.0937c1.8255 0 3.0179.336 3.5626 1 .5435.664.8124 1.5527.8124 2.6563 0 .6343-.0902 1.1606-.25 1.5937-.1607.432-.3784.7967-.6562 1.0625-.2778.2669-.6442.456-1.0938.5938-.4484.1389-.9845.2182-1.5937.25-.6092.0306-1.179.0482-1.75.0624v-7.1874c.3653-.0318.6866-.0313.9688-.0313zm122.2188 2.2813l2.75 6.625h-5.4688zm-85.3438.0312l2.75 6.6563h-5.5zm136.0313 1.6563c1.5958 2.0846 3.5116 4.794 5.7188 8.1562-1.2436 1.447-2.5991 2.1875-4.0625 2.1875-1.318 0-2.5191-.5692-3.5625-1.7188-1.0435-1.1484-1.5625-2.3957-1.5625-3.6874 0-.8379.3014-1.6958.9062-2.5938.6016-.898 1.4622-1.6722 2.5625-2.3438zm63.2813 8.3437c-.4714 0-.883.1631-1.2188.5-.338.3369-.5.7484-.5 1.2188 0 .4615.1686.8709.5 1.2187.3303.3478.7386.5 1.2188.5.4714 0 .8764-.1642 1.2187-.5.3423-.338.5-.7375.5-1.2188 0-.4703-.1642-.8818-.5-1.2187-.339-.3369-.7364-.5-1.2188-.5z"/><path fill="none" d="M0 0h360v45H0z"/></svg>