<?xml version="1.0" encoding="UTF-8" standalone="no"?>
<!-- Created with Inkscape (http://www.inkscape.org/) -->

<svg
   width="48"
   height="48"
   viewBox="0 0 12.7 12.7"
   version="1.1"
   id="svg1"
   xml:space="preserve"
   sodipodi:docname="drawing.svg"
   inkscape:export-filename="qhlogo.svg"
   inkscape:export-xdpi="2400"
   inkscape:export-ydpi="2400"
   xmlns:inkscape="http://www.inkscape.org/namespaces/inkscape"
   xmlns:sodipodi="http://sodipodi.sourceforge.net/DTD/sodipodi-0.dtd"
   xmlns="http://www.w3.org/2000/svg"
   xmlns:svg="http://www.w3.org/2000/svg"><sodipodi:namedview
     id="namedview1"
     pagecolor="#ffffff"
     bordercolor="#000000"
     borderopacity="0.25"
     inkscape:showpageshadow="2"
     inkscape:pageopacity="0.0"
     inkscape:pagecheckerboard="0"
     inkscape:deskcolor="#d1d1d1"
     inkscape:document-units="mm"
     showgrid="true"
     showguides="true"
     inkscape:zoom="23.705458"
     inkscape:cx="16.599553"
     inkscape:cy="27.672952"
     inkscape:window-width="2560"
     inkscape:window-height="1476"
     inkscape:window-x="-12"
     inkscape:window-y="-12"
     inkscape:window-maximized="1"
     inkscape:current-layer="svg1"
     guidecolor="#ec1313"
     guideopacity="0.83529412"
     inkscape:lockguides="true"><inkscape:grid
       id="grid8"
       units="mm"
       originx="0"
       originy="0"
       spacingx="0.99999998"
       spacingy="1"
       empcolor="#0099e5"
       empopacity="0.30196078"
       color="#0092da"
       opacity="0.36862745"
       empspacing="10"
       dotted="false"
       gridanglex="30"
       gridanglez="30"
       visible="true"
       snapvisiblegridlinesonly="true" /><sodipodi:guide
       position="0,297"
       orientation="0,793.70079"
       id="guide8"
       inkscape:locked="true" /><sodipodi:guide
       position="210,297"
       orientation="1122.5197,0"
       id="guide9"
       inkscape:locked="true" /><sodipodi:guide
       position="210,0"
       orientation="0,-793.70079"
       id="guide10"
       inkscape:locked="true" /><sodipodi:guide
       position="0,0"
       orientation="-1122.5197,0"
       id="guide11"
       inkscape:locked="true" /><inkscape:grid
       id="grid11"
       units="mm"
       originx="396.8504"
       originy="561.25983"
       spacingx="0.99999998"
       spacingy="1"
       empcolor="#0099e5"
       empopacity="0.30196078"
       color="#0099e5"
       opacity="0.14901961"
       empspacing="5"
       dotted="false"
       gridanglex="30"
       gridanglez="30"
       visible="true"
       enabled="false" /></sodipodi:namedview><defs
     id="defs1" /><path
     id="path1"
     style="display:inline;fill:#000000;stroke-width:0.111412"
     d="M 3.7424388,0.38435769 V 3.8037646 7.2231707 h 0.00299 v 0.8740814 l 1.1869936,0.00598 v -0.880012 h 0.8551397 2.045069 l 0.014453,0.5379685 c 0.012041,0.4481361 0.025433,0.5724228 0.080201,0.7443083 0.1649224,0.5176085 0.4890344,0.9400085 0.9426513,1.2284475 h 5.79e-5 c 0.072074,0.04584 0.1435025,0.08331 0.1587298,0.08331 0.017218,0 0.0208,-1.6627616 0.0095,-4.3995369 -0.00999,-2.4197471 -0.018377,-4.54213805 -0.01871,-4.7164247 L 9.0189509,0.38439598 H 8.5661921 c -0.249033,0 -0.5143328,0.008457 -0.5895525,0.0187688 L 7.8398435,0.42186702 V 3.2330116 6.0440955 H 6.398766 4.957701 L 4.938711,5.2703079 C 4.9282439,4.8447253 4.923417,4.397032 4.9279947,4.2754366 c 0.00458,-0.1215975 0.00499,-1.0468258 9.241e-4,-2.0560658 l -0.00736,-1.83498233 h -0.589555 z m 3.3899288,0.64747191 -0.7443094,0.00788 -0.744311,0.00788 -0.00801,0.5660049 -0.00801,0.5660075 0.1848687,0.010624 C 6.1750973,2.21081 6.4738641,2.211474 6.80073,2.192666 L 7.1323448,2.1736374 V 1.6026999 Z m -4.038437,1.2055883 -0.095802,0.066841 C 2.8472673,2.4095004 2.4843234,2.7670513 2.298841,2.9931268 1.7661586,3.6423877 1.4340428,4.3284602 1.2472597,5.1652612 c -0.075406,0.3378239 -0.081139,0.4108954 -0.082556,1.0556679 -0.00123,0.5576889 0.0093,0.7501866 0.053716,0.9875011 0.1304722,0.6959215 0.4991255,1.589159 0.869821,2.1076528 0.2235598,0.3126921 0.6404588,0.777104 0.906553,1.009837 0.246575,0.215662 0.7674458,0.563393 1.0866429,0.725426 0.4943418,0.250948 1.2102949,0.460789 1.7136185,0.502274 0.1599715,0.01328 0.3306571,0.02514 0.3792948,0.0266 0.1447335,0.0042 0.7238204,-0.04508 0.7420073,-0.06327 C 6.8683673,10.899529 5.7600023,10.434641 5.2828246,10.242152 4.4530637,9.9455114 3.9772593,9.6535373 3.4676465,9.1282199 2.7700959,8.4091741 2.3908188,7.5466769 2.3123762,6.5009687 2.2758062,6.0134408 2.3801976,5.2668641 2.5575819,4.7470466 2.6606409,4.4450402 2.726942,4.3098465 2.9350911,3.9774031 L 3.093936,3.7236771 V 2.9805775 Z m 6.6043171,0.1219517 c -0.020715,0 -0.030806,0.2811418 -0.030806,0.8582478 v 0.8583053 l 0.0996,0.1365594 c 0.1985575,0.2723506 0.3633313,0.6744194 0.4788993,1.1683393 0.07669,0.3277822 0.0776,1.2667328 0.0016,1.645799 C 10.159991,7.46313 10.013949,7.8923668 9.8036655,8.2026752 9.7157605,8.3323958 9.687996,8.4024457 9.6878838,8.751004 9.6877717,8.9470341 9.7113828,9.5472467 9.6869336,9.5472467 l 0.00466,0.5699183 c 0.047064,0 0.4949314,-0.5276578 0.6574314,-0.7274972 0.423898,-0.5212913 0.699517,-1.0236549 0.892331,-1.6263375 0.151993,-0.4750848 0.198021,-0.775407 0.216074,-1.409746 C 11.47501,5.7357473 11.44803,5.441702 11.329792,4.9681356 11.095475,4.0292491 10.66247,3.2623278 10.010641,2.6317446 9.8557888,2.4819498 9.7152443,2.3593652 9.6983038,2.3593652 Z M 5.2305418,8.3542693 C 4.9862237,8.3518296 4.749328,8.3715334 4.6120297,8.4140942 4.4013874,8.479386 3.9782603,8.6865599 3.9782603,8.7244159 c 0,0.050285 0.3388481,0.324106 0.5522452,0.4462525 0.1172966,0.067128 0.4223918,0.1937726 0.6779857,0.2814184 0.8496618,0.2913476 1.0946233,0.4416186 1.8026273,1.1055832 0.2486283,0.233162 0.5666538,0.527619 0.7067147,0.654382 0.6646259,0.601528 1.2311339,0.933054 1.8174236,1.063556 0.2997924,0.06672 0.8235282,0.04762 1.0747842,-0.03925 0.38139,-0.131868 0.665806,-0.404338 0.830095,-0.79515 0.08299,-0.197403 0.09423,-0.256818 0.09523,-0.503825 0.0012,-0.293459 -0.0429,-0.535295 -0.128674,-0.705393 l -0.05096,-0.10104 -0.03754,0.115776 c -0.07383,0.227872 -0.18767,0.412592 -0.355512,0.576826 -0.267177,0.26143 -0.583411,0.352278 -1.018246,0.292531 C 9.4288785,11.045256 8.9048645,10.694902 8.0019578,9.8173954 7.1368936,8.9766634 6.5909648,8.6164853 5.8936731,8.4265328 5.7266193,8.3810278 5.4748596,8.3566375 5.2305418,8.3542693 Z" /></svg>
