<?xml version="1.0" encoding="UTF-8" standalone="no"?>
<!DOCTYPE svg PUBLIC "-//W3C//DTD SVG 1.1//EN" "http://www.w3.org/Graphics/SVG/1.1/DTD/svg11.dtd">
<svg width="100%" height="100%" viewBox="0 0 1280 1280" version="1.1" xmlns="http://www.w3.org/2000/svg" xmlns:xlink="http://www.w3.org/1999/xlink" xml:space="preserve" xmlns:serif="http://www.serif.com/" style="fill-rule:evenodd;clip-rule:evenodd;stroke-linejoin:round;stroke-miterlimit:2;">
    <g id="path1" transform="matrix(26.6667,0,0,26.6667,0,0)">
        <path d="M26.957,3.9L21.331,3.959L21.27,8.238L21.969,8.278C23.339,8.356 24.468,8.358 25.704,8.287L26.957,8.215L26.957,6.057L26.957,3.9ZM11.694,8.456L11.332,8.709C10.761,9.107 9.39,10.458 8.689,11.313C6.675,13.767 5.42,16.36 4.714,19.522C4.429,20.799 4.407,21.075 4.402,23.512C4.397,25.62 4.437,26.348 4.605,27.244C5.098,29.875 6.492,33.251 7.893,35.21C8.738,36.392 10.313,38.147 11.319,39.027C12.251,39.842 14.219,41.156 15.426,41.769C17.294,42.717 20,43.51 21.903,43.667C22.507,43.717 23.152,43.762 23.336,43.768C23.883,43.784 26.072,43.597 26.141,43.529C25.959,41.195 21.77,39.438 19.967,38.71C16.83,37.589 15.032,36.486 13.106,34.5C10.47,31.783 9.036,28.523 8.74,24.571C8.601,22.728 8.996,19.906 9.666,17.942C10.056,16.8 10.307,16.289 11.093,15.033L11.694,14.074L11.694,11.265L11.694,8.456ZM36.655,8.917C36.577,8.917 36.538,9.98 36.538,12.161L36.538,15.405L36.915,15.921C37.665,16.951 38.288,18.47 38.725,20.337C39.015,21.576 39.018,25.125 38.731,26.557C38.4,28.207 37.848,29.829 37.053,31.002C36.721,31.493 36.616,31.757 36.616,33.075C36.615,33.816 36.704,36.084 36.612,36.084L36.63,38.238C36.808,38.238 38.5,36.244 39.114,35.489C40.717,33.518 41.758,31.62 42.487,29.342C43.061,27.546 43.235,26.411 43.304,24.014C43.37,21.678 43.268,20.567 42.821,18.777C41.936,15.229 40.299,12.33 37.835,9.947C37.25,9.381 36.719,8.917 36.655,8.917L36.655,8.917ZM19.769,31.575C18.846,31.566 17.95,31.64 17.431,31.801C16.635,32.048 15.036,32.831 15.036,32.974C15.036,33.164 16.317,34.199 17.123,34.661C17.566,34.915 18.72,35.393 19.686,35.724C22.897,36.826 23.823,37.394 26.499,39.903C27.438,40.784 28.64,41.897 29.17,42.376C31.682,44.65 33.823,45.903 36.039,46.396C37.172,46.648 39.151,46.576 40.101,46.248C41.542,45.749 42.617,44.719 43.238,43.242C43.552,42.496 43.594,42.272 43.598,41.338C43.603,40.229 43.436,39.315 43.112,38.672L42.919,38.29L42.777,38.728C42.498,39.589 42.068,40.287 41.434,40.908C40.424,41.896 39.229,42.239 37.585,42.014C35.637,41.746 33.656,40.422 30.244,37.105C26.974,33.928 24.911,32.566 22.275,31.848C21.644,31.676 20.692,31.584 19.769,31.575Z" style="fill:rgb(240,238,255);fill-rule:nonzero;stroke:rgb(184,180,255);stroke-width:0.59px;"/>
    </g>
    <g id="path11" serif:id="path1" transform="matrix(26.6667,0,0,26.6667,0,0)">
        <path d="M14.632,1.378L14.632,27.225L14.643,27.225L14.643,30.529L19.13,30.551L19.13,27.225L30.091,27.225L30.146,29.259C30.191,30.952 30.242,31.422 30.449,32.072C31.072,34.028 32.297,35.625 34.012,36.715L34.012,36.715C34.284,36.888 34.554,37.03 34.612,37.03C34.677,37.03 34.69,30.745 34.648,20.401C34.61,11.256 34.578,3.234 34.577,2.576L34.575,1.378L32.864,1.378C31.922,1.378 30.92,1.41 30.635,1.449L30.118,1.519L30.118,22.769L19.225,22.769L19.153,19.844C19.114,18.236 19.096,16.544 19.113,16.084C19.13,15.625 19.132,12.128 19.116,8.313L19.089,1.378L16.86,1.378L14.632,1.378Z" style="fill:rgb(183,180,255);fill-rule:nonzero;stroke:rgb(184,180,255);stroke-width:0.59px;"/>
    </g>
</svg>
