<?xml version="1.0" encoding="UTF-8" standalone="no"?>
<!DOCTYPE svg PUBLIC "-//W3C//DTD SVG 1.1//EN" "http://www.w3.org/Graphics/SVG/1.1/DTD/svg11.dtd">
<svg width="100%" height="100%" viewBox="0 0 1280 1280" version="1.1" xmlns="http://www.w3.org/2000/svg" xmlns:xlink="http://www.w3.org/1999/xlink" xml:space="preserve" xmlns:serif="http://www.serif.com/" style="fill-rule:evenodd;clip-rule:evenodd;stroke-linejoin:round;stroke-miterlimit:2;">
    <g id="path1" transform="matrix(26.6667,0,0,26.6667,0,0)">
        <path d="M16.486,6.81L16.486,26.516L16.495,26.516L16.495,29.035L19.915,29.052L19.915,26.516L28.272,26.516L28.314,28.066C28.349,29.358 28.387,29.716 28.545,30.211C29.02,31.702 29.954,32.92 31.261,33.751L31.261,33.751C31.469,33.883 31.675,33.991 31.719,33.991C31.768,33.991 31.779,29.2 31.746,21.314C31.717,14.341 31.693,8.226 31.692,7.723L31.691,6.81L30.386,6.81C29.668,6.81 28.904,6.835 28.687,6.864L28.293,6.918L28.293,23.119L19.988,23.119L19.933,20.889C19.903,19.663 19.889,18.373 19.903,18.022C19.916,17.672 19.917,15.006 19.905,12.098L19.884,6.81L18.185,6.81L16.486,6.81ZM26.254,8.676L21.965,8.721L21.919,11.983L22.451,12.014C23.496,12.073 24.357,12.075 25.299,12.021L26.254,11.966L26.254,10.321L26.254,8.676ZM14.618,12.15L14.342,12.342C13.907,12.646 12.861,13.676 12.327,14.327C10.792,16.198 9.835,18.175 9.297,20.586C9.079,21.56 9.063,21.77 9.059,23.628C9.055,25.235 9.085,25.79 9.213,26.474C9.589,28.479 10.652,31.053 11.72,32.547C12.364,33.448 13.565,34.786 14.332,35.457C15.043,36.078 16.543,37.08 17.463,37.547C18.888,38.27 20.951,38.875 22.401,38.994C22.862,39.032 23.354,39.067 23.494,39.071C23.911,39.083 25.58,38.941 25.632,38.888C25.494,37.109 22.3,35.77 20.925,35.215C18.534,34.36 17.163,33.519 15.695,32.005C13.685,29.933 12.592,27.448 12.366,24.435C12.26,23.03 12.561,20.879 13.072,19.381C13.369,18.511 13.56,18.121 14.16,17.163L14.618,16.432L14.618,14.291L14.618,12.15ZM33.648,12.501C33.588,12.501 33.559,13.311 33.559,14.974L33.559,17.447L33.846,17.841C34.418,18.626 34.893,19.784 35.226,21.207C35.447,22.152 35.45,24.857 35.231,25.95C34.978,27.207 34.558,28.444 33.952,29.338C33.698,29.712 33.618,29.914 33.618,30.918C33.618,31.483 33.686,33.213 33.615,33.213L33.629,34.855C33.764,34.855 35.055,33.335 35.523,32.759C36.744,31.257 37.539,29.809 38.094,28.072C38.532,26.704 38.665,25.838 38.717,24.01C38.767,22.23 38.69,21.383 38.349,20.018C37.674,17.313 36.426,15.103 34.548,13.286C34.102,12.854 33.697,12.501 33.648,12.501L33.648,12.501ZM20.774,29.775C20.07,29.768 19.388,29.825 18.992,29.948C18.385,30.136 17.166,30.733 17.166,30.842C17.166,30.987 18.142,31.776 18.757,32.128C19.095,32.321 19.974,32.686 20.711,32.939C23.159,33.778 23.865,34.211 25.905,36.124C26.621,36.796 27.538,37.645 27.941,38.01C29.856,39.743 31.489,40.698 33.178,41.075C34.042,41.267 35.551,41.212 36.275,40.961C37.374,40.581 38.194,39.796 38.667,38.67C38.906,38.101 38.939,37.93 38.942,37.218C38.945,36.373 38.818,35.676 38.571,35.186L38.424,34.895L38.316,35.228C38.103,35.885 37.775,36.417 37.291,36.89C36.521,37.644 35.61,37.906 34.357,37.733C32.872,37.529 31.362,36.52 28.76,33.991C26.267,31.569 24.694,30.531 22.685,29.983C22.204,29.852 21.478,29.782 20.774,29.775Z" style="fill:url(#_Linear1);fill-rule:nonzero;"/>
    </g>
    <defs>
        <linearGradient id="_Linear1" x1="0" y1="0" x2="1" y2="0" gradientUnits="userSpaceOnUse" gradientTransform="matrix(13.7625,-17.7,17.7,13.7625,16.9875,29.4)"><stop offset="0" style="stop-color:rgb(0,0,57);stop-opacity:1"/><stop offset="1" style="stop-color:rgb(159,160,248);stop-opacity:1"/></linearGradient>
    </defs>
</svg>
